<svg xmlns="http://www.w3.org/2000/svg" data-name="Layer 1" viewBox="0 0 512 512" id="indian-map"><path fill="#f9f7f8" d="M178.19 508.464c8.849-1.29 16.154-21.761 18.495-33.142 1.342-6.527 1.448-11.991 5.853-18.293 4.053-5.796 7.594-6.366 8.565-11.078 1.234-5.985-3.766-8.52-4.358-16.43-.432-5.776 1.983-7.783 4.165-14.84 5.37-17.361-3.181-24.83 2.62-31.74 5.763-6.867 15.089-.056 24.842-8.403 6.692-5.727 4.077-9.919 11.742-17.08 7.453-6.962 11.448-4.42 19.634-11.85 6.792-6.163 4.254-8.105 11.322-14.836 8.021-7.638 12.968-6.736 19.52-14.445 3.532-4.155 2.815-5.263 6.789-11.974 3.474-5.866 14.75-24.909 27.8-24.923 8.272-.009 11.629 7.773 14.718 5.888 4.78-2.918-.414-18.868-5.7-55.53-1.663-11.545-2.551-19.696.857-21.413 3.689-1.857 7.134 6.475 18.844 9.993 10.666 3.204 17.158-.9 27.694 4.853 4.96 2.709 5.358 4.62 5.435 5.116.764 4.915-8.793 7.227-12.573 16.868-2.083 5.315-2.068 11.981.286 13.134 4.027 1.972 13.704-12.302 16.56-10.564 2.446 1.489-4.894 11.848-.76 21.07 2.8 6.248 10.31 10.725 13.958 8.917 1.027-.508 2.7-1.987 3.101-14.346.52-16.047-2.193-16.93-.42-22.117 3.448-10.083 14.069-7.821 21.739-19.941 4.683-7.402 2.188-11.403 3.865-16.344a14.255 14.255 0 0 1 2.316-4.073c2.453-3.377 12.88-15.493 29.19-16.36 7.303-.387 10.505 1.761 12.887-.757 3.81-4.03-.414-13.736-1.276-15.715-1.195-2.746-3.417-7.85-8.514-11.003-5.445-3.368-10.322-2.13-19.016-2.089-15.75.074-16.794-3.91-24.51-3.009-19.024 2.224-17.852 27.797-41.651 36.219-1.913.677-22.746 7.75-35.766-2.264-7.518-5.783-8.526-14.26-12.677-14.035-5.588.303-2.881 17.683-13.115 24.973-10.678 7.606-30.354.87-41.506-6.73-8.646-5.891-7.798-9.324-16.375-13.751-11.042-5.7-15.615-1.647-28.747-5.76-10.192-3.192-27.033-11.65-27.807-23.142-.568-8.454 7.998-11.335 7.893-19.177-.211-15.83-44.413-24.248-43.05-34.247.768-5.63 16.567-4.81 19.373-13.697 2.128-6.742-5.947-10.251-5.796-18.88.253-14.492 23.293-20.079 21.524-28.641-1.42-6.871-17.973-11.582-31.514-10.011-12.722 1.476-15.38 7.639-23.71 6.096-10.925-2.023-11.242-13.53-22.21-20.48-19.26-12.203-54.165.635-54.53 9.59-.334 8.21 27.8 12.13 27.983 24.656.073 4.995-4.364 7.461-7.144 10.855-1.38 1.685-1.878 4.322-2.183 5.583-2.48 10.247 20.053 16.118 25.132 33.652 2.828 9.76.314 23.142-6.514 31.038-2.567 2.969-4.538 3.767-7.039 7.919-4.77 7.917-2.234 12.702-6.158 18.036-3.488 4.74-6.731 2.647-15.397 7.478-12.71 7.086-11.208 15.692-21.003 18.66-7.94 2.405-11.743-2.236-17.508 1.523-4.53 2.953-7.791 9.475-6.405 14.716 1.818 6.87 9.747 5.174 14.136 13.762 2.843 5.56.908 9.41 5.357 14.342 2.241 2.484 3.9 2.8 4.326 4.845.775 3.708-2.904 10.813-8.103 10.886q-11.136.156-22.854-.088-7.334-.16-14.428-.476a3.003 3.003 0 0 0-2.927 4.103 37.053 37.053 0 0 0 41.568 23.342 17.975 17.975 0 0 1-7.268 8.666 18.278 18.278 0 0 1-14.173 1.668 2.991 2.991 0 0 0-3.468 4.142c5.463 11.717 16.79 18.652 27.562 17.494 7.317-.786 12.68-5.124 16.028-8.87a1.992 1.992 0 0 1 3.483 1.448c-.368 5.69.896 12.303-.133 23.075a83.713 83.713 0 0 0 1.264 21.378c3.403 17.58 11.867 18.794 14.788 34.65 2.449 13.295-3.257 13.775-.393 25.156 3.698 14.699 13.165 13.703 20.934 31.825 5.198 12.125 2.051 15.116 8.481 25.198 3.85 6.035 6.683 7.638 13.119 17.177 4.215 6.247 5.138 9.103 8.535 14.473 14.642 23.145 19.437 28.804 24.395 28.081Z"></path><path fill="#e2e2e2" d="M342.949 219.755a29.919 29.919 0 0 0-9.05-1.387c-3.59.01-9.693.028-12.512 3.472-2.273 2.775-1.333 6.46.264 14.29 3.068 15.04 4.585 22.628 3.705 25.934-1.142 4.295-3.34 4.837-20.177 17.366-21.232 15.8-25.054 20.287-27.8 24.923-3.974 6.71-3.257 7.82-6.788 11.974-6.553 7.71-11.5 6.807-19.521 14.445-7.068 6.73-4.53 8.673-11.322 14.836-8.186 7.43-12.18 4.888-19.634 11.85-7.665 7.161-5.05 11.353-11.742 17.08-9.753 8.347-19.079 1.536-24.843 8.403-5.8 6.91 2.752 14.379-2.619 31.74-2.182 7.057-4.597 9.064-4.165 14.84.592 7.91 5.592 10.445 4.358 16.43-.971 4.712-4.512 5.282-8.565 11.078-4.406 6.302-4.511 11.766-5.853 18.293a96.773 96.773 0 0 1-5.25 16.873c8.91 13.321 12.782 16.848 16.754 16.27 8.85-1.29 16.155-21.762 18.496-33.143 1.342-6.527 1.447-11.991 5.853-18.293 4.053-5.796 7.594-6.366 8.565-11.078 1.234-5.985-3.766-8.52-4.358-16.43-.432-5.776 1.983-7.783 4.165-14.84 5.37-17.361-3.181-24.83 2.62-31.74 5.763-6.867 15.089-.056 24.842-8.403 6.692-5.727 4.077-9.919 11.742-17.08 7.454-6.962 11.448-4.42 19.634-11.85 6.791-6.163 4.254-8.105 11.322-14.836 8.021-7.638 12.968-6.736 19.52-14.445 3.532-4.155 2.815-5.263 6.789-11.974 3.474-5.866 14.75-24.909 27.8-24.923 8.272-.009 11.629 7.773 14.718 5.888 4.78-2.918-.414-18.868-5.7-55.53-.538-3.736-.992-7.11-1.248-10.033Z"></path><path fill="#ff7b4f" d="M272.77 176.42c-11.042-5.7-15.615-1.647-28.746-5.76-10.193-3.192-27.034-11.65-27.808-23.142-.568-8.454 7.998-11.335 7.893-19.177-.211-15.83-44.413-24.248-43.05-34.246.768-5.632 16.567-4.81 19.373-13.698 2.128-6.742-5.947-10.251-5.796-18.88.253-14.492 23.293-20.079 21.524-28.641-1.42-6.871-17.973-11.582-31.513-10.011-12.723 1.476-15.38 7.639-23.71 6.096-10.926-2.023-11.243-13.53-22.21-20.48-19.261-12.203-54.166.634-54.53 9.59-.335 8.21 27.8 12.13 27.982 24.656.073 4.995-4.364 7.461-7.144 10.855-1.38 1.685-1.878 4.322-2.183 5.583-2.48 10.247 20.053 16.118 25.132 33.652 2.828 9.76.314 23.142-6.514 31.038-2.567 2.969-4.538 3.767-7.039 7.919-4.77 7.917-2.234 12.702-6.158 18.036-3.488 4.74-6.731 2.647-15.397 7.478-12.71 7.086-11.208 15.692-21.003 18.66-7.94 2.405-11.743-2.236-17.508 1.523a15.805 15.805 0 0 0-6.41 9.436h237c-4.484-4.037-5.324-6.945-12.185-10.487Z"></path><path fill="#8fd17a" d="M87.09 322.372a80.648 80.648 0 0 0 1.24 9.532c3.403 17.58 11.867 18.794 14.788 34.65 2.449 13.295-3.257 13.775-.393 25.156 3.698 14.699 13.165 13.703 20.934 31.825 5.198 12.125 2.051 15.116 8.481 25.198 3.85 6.035 6.683 7.638 13.119 17.177 4.215 6.247 5.138 9.103 8.536 14.473 14.64 23.145 19.437 28.804 24.394 28.081 8.85-1.29 16.155-21.761 18.496-33.142 1.342-6.527 1.447-11.991 5.853-18.293 4.053-5.796 7.594-6.366 8.565-11.078 1.234-5.985-3.766-8.52-4.358-16.43-.432-5.776 1.983-7.783 4.165-14.84 5.37-17.361-3.181-24.83 2.62-31.74 5.763-6.867 15.089-.056 24.842-8.403 6.692-5.727 4.077-9.919 11.742-17.08 7.454-6.962 11.448-4.42 19.634-11.85 6.792-6.163 4.254-8.105 11.322-14.836 4.938-4.701 8.71-6.17 12.41-8.4Z"></path><path fill="#f24f2a" d="M186.16 32.876c1.769 8.562-21.271 14.149-21.524 28.64-.15 8.63 7.924 12.14 5.796 18.88-2.806 8.889-18.605 8.067-19.373 13.699-1.363 9.998 42.839 18.416 43.05 34.246.105 7.842-8.461 10.723-7.893 19.177.774 11.493 17.615 19.95 27.808 23.142 13.131 4.113 17.704.06 28.746 5.76 8.577 4.427 7.729 7.86 16.375 13.752 11.151 7.599 30.828 14.335 41.505 6.73.188-.135.363-.279.542-.42a63.013 63.013 0 0 1-12.047-6.31c-8.646-5.892-7.798-9.324-16.375-13.752-11.042-5.7-15.615-1.647-28.746-5.76-10.193-3.192-27.034-11.65-27.808-23.142-.568-8.454 7.998-11.335 7.893-19.177-.211-15.83-44.413-24.248-43.05-34.246.768-5.632 16.567-4.81 19.373-13.698 2.128-6.742-5.947-10.251-5.796-18.88.253-14.492 23.293-20.079 21.524-28.641-1.42-6.871-17.973-11.582-31.513-10.011a35.7 35.7 0 0 0-8.81 2.126c5.557 1.847 9.649 4.621 10.323 7.885Z"></path><path fill="#e2e2e2" d="M485.9 168.11c-1.195-2.747-3.416-7.85-8.514-11.004-5.445-3.368-10.321-2.13-19.016-2.089-15.75.074-16.794-3.91-24.51-3.009h-.004c-.52.062-1.02.147-1.511.242q-.226.044-.447.093c-.368.08-.726.171-1.079.27-.18.051-.36.102-.537.158a17.873 17.873 0 0 0-1.684.629c-.145.062-.286.128-.428.193a18.41 18.41 0 0 0-2.481 1.391l-.005.004c.846.023 1.738.034 2.686.03 8.695-.041 13.571-1.28 19.016 2.088 5.098 3.154 7.319 8.257 8.514 11.003.862 1.98 5.086 11.684 1.276 15.715-2.382 2.518-5.584.37-12.887.757-16.31.867-26.737 12.983-29.19 16.36a14.254 14.254 0 0 0-2.316 4.073c-1.676 4.94.818 8.942-3.865 16.344-4.48 7.08-9.966 9.253-14.442 11.845-.699.652-1.495 1.329-2.337 2.061-.491.429-.997.876-1.508 1.35l-.104.097a34.06 34.06 0 0 0-1.587 1.576l-.093.099a26.97 26.97 0 0 0-.787.88 20.774 20.774 0 0 0-3.606 5.94c-2.083 5.314-2.068 11.98.286 13.133 3.924 1.922 13.208-11.573 16.323-10.66a.814.814 0 0 1 .236.096c2.444 1.487-4.87 11.818-.776 21.03l.016.04a15.434 15.434 0 0 0 1.462 2.537c3.403 4.85 9.366 7.93 12.497 6.38.71-.351 1.73-1.171 2.425-5.737q.08-.533.156-1.136c.235-1.898.419-4.333.52-7.473a92.235 92.235 0 0 0-.218-11.128c-.513-5.877-1.425-7.41-.202-10.989a14.493 14.493 0 0 1 .553-1.368q.193-.419.404-.807a12.29 12.29 0 0 1 1.227-1.845 12.704 12.704 0 0 1 .982-1.083l.02-.022c3.814-3.725 9.564-4.912 14.78-10.086a26.729 26.729 0 0 0 3.773-4.73 21.75 21.75 0 0 0 1.736-3.323c1.76-4.236 1.207-7.304 1.568-10.435a12.322 12.322 0 0 1 .56-2.586 13.278 13.278 0 0 1 2.097-3.773l.22-.3a27.406 27.406 0 0 1 .966-1.246q.317-.387.697-.828l.117-.134c4.158-4.756 13.706-13.424 27.41-14.152 7.303-.387 10.505 1.761 12.887-.757a6.983 6.983 0 0 0 1.566-5.032c-.068-4.31-2.25-9.322-2.842-10.683Z"></path><path fill="#709653" d="M282.65 329.345q.626-.54 1.228-1.017l.196-.152q.585-.456 1.15-.865c.03-.02.06-.044.09-.065.404-.29.8-.558 1.19-.816l.167-.109c2.168-1.412 4.143-2.4 6.078-3.518q.3-.174.599-.353c.043-.027.087-.052.131-.078h-30c-3.7 2.23-7.471 3.698-12.409 8.4-7.068 6.73-4.53 8.673-11.322 14.836-8.186 7.43-12.18 4.888-19.634 11.85-7.665 7.161-5.05 11.353-11.742 17.08-9.753 8.347-19.079 1.536-24.843 8.403-5.8 6.91 2.752 14.379-2.619 31.74-2.182 7.057-4.597 9.064-4.165 14.84.592 7.91 5.592 10.445 4.358 16.43-.971 4.712-4.512 5.282-8.565 11.078-4.406 6.302-4.511 11.766-5.853 18.293a96.773 96.773 0 0 1-5.25 16.873l.002.001a222.882 222.882 0 0 0 3.061 4.472l.088.125q.33.468.65.914l.077.106c.881 1.228 1.704 2.33 2.475 3.317l.14.178q.252.32.496.624l.128.157q.8.987 1.53 1.802l.073.083a34.094 34.094 0 0 0 .58.628q.19.203.378.393l.171.173c.125.125.25.25.372.367l.08.075c.25.237.493.456.731.661l.16.139a15.466 15.466 0 0 0 .506.405q.144.11.286.213l.207.147c.09.062.181.126.27.183.079.052.156.098.234.145q.204.125.403.233c.084.046.168.092.25.133.075.037.148.07.221.103.08.037.16.072.238.104q.106.044.211.083c.085.032.169.06.253.088.062.02.124.042.186.06a5.4 5.4 0 0 0 .354.09l.152.03c.115.022.23.041.344.055.053.007.106.01.158.015a4.842 4.842 0 0 0 .729.018l.137-.006c.14-.01.282-.024.423-.045 8.85-1.29 16.155-21.761 18.496-33.142 1.342-6.527 1.447-11.991 5.853-18.293 4.053-5.796 7.594-6.366 8.565-11.078 1.234-5.985-3.766-8.52-4.358-16.43-.432-5.776 1.983-7.783 4.165-14.84 5.37-17.361-3.181-24.83 2.62-31.74 5.763-6.867 15.089-.056 24.842-8.403 6.692-5.727 4.077-9.919 11.742-17.08 7.454-6.962 11.448-4.42 19.634-11.85 6.791-6.163 4.254-8.105 11.322-14.836.452-.43.892-.825 1.325-1.205.085-.075.17-.15.255-.222Z"></path><path fill="#f24f2a" d="M108.727 8.481c10.967 6.95 11.284 18.457 22.21 20.48 7.689 1.424 10.551-3.715 20.95-5.676-3.665-4.463-6.375-10.504-13.16-14.804-10.03-6.355-24.297-5.912-35.725-2.77a28.953 28.953 0 0 1 5.725 2.77Z"></path><path d="M489.11 166.713c-1.252-2.874-3.854-8.854-9.882-12.583-5.128-3.172-9.769-2.987-15.644-2.754-1.637.065-3.33.133-5.23.142a46.859 46.859 0 0 1-15.195-1.932 22.508 22.508 0 0 0-9.706-1.055c-11.041 1.291-16.31 9.335-21.404 17.114-4.966 7.583-10.102 15.423-21.008 19.282-.844.299-20.82 7.217-32.464-1.739a27.576 27.576 0 0 1-6.656-8.168c-2.036-3.35-4.145-6.812-8.343-6.586-5.104.275-6.388 5.664-7.63 10.876-1.216 5.108-2.73 11.465-7.328 14.74-8.325 5.93-25.949 1.102-37.504-6.77a34.945 34.945 0 0 1-7.12-6.36 29.624 29.624 0 0 0-9.621-7.61c-6.74-3.48-11.366-3.694-16.263-3.92a46.152 46.152 0 0 1-13.043-2.07c-9.86-3.089-24.75-10.973-25.36-20.038-.198-2.935 1.127-4.87 3.304-7.783 2.185-2.923 4.662-6.235 4.595-11.205-.144-10.846-14.544-17.806-27.25-23.946-5.369-2.596-15.31-7.4-15.816-9.7.666-.745 3.589-1.794 5.363-2.432 4.982-1.79 11.804-4.24 13.865-10.766 1.584-5.02-.791-8.845-2.7-11.919-1.537-2.477-2.99-4.817-2.935-7.953.109-6.21 5.979-10.666 11.656-14.974 5.43-4.123 11.046-8.385 9.797-14.436-.944-4.571-5.78-8.41-13.614-10.81a55.172 55.172 0 0 0-21.73-1.97 41.796 41.796 0 0 0-14.09 4.258c-3.312 1.545-5.313 2.48-8.58 1.874-4.638-.859-6.792-3.967-9.772-8.269-2.679-3.867-5.715-8.25-11.202-11.726-13.994-8.867-36.068-6.04-49.733 1.12C86.342 9.017 80.904 12.9 80.7 17.928c-.243 5.958 6.51 9.35 13.661 12.94 6.679 3.354 14.249 7.154 14.319 11.911.03 2.048-1.284 3.43-3.609 5.697a35.202 35.202 0 0 0-2.743 2.89 15.898 15.898 0 0 0-2.786 6.581l-.092.395c-1.73 7.145 4.233 12.086 10.545 17.316 5.782 4.793 12.337 10.225 14.628 18.132 2.563 8.85.015 21.05-5.8 27.775a28.76 28.76 0 0 1-2.334 2.352 24.94 24.94 0 0 0-5.055 6.05 28.95 28.95 0 0 0-3.9 11.529c-.4 2.523-.688 4.347-2.08 6.24-1.226 1.665-2.17 1.93-4.693 2.638a40.176 40.176 0 0 0-9.59 3.857 35.868 35.868 0 0 0-12.73 11.885c-2.3 3.217-3.82 5.342-7.582 6.482a15.499 15.499 0 0 1-7.532.216c-3.14-.467-6.697-.999-10.873 1.725-5.36 3.493-9.771 11.385-7.877 18.544 1.281 4.845 4.84 6.79 7.701 8.353 2.556 1.397 4.97 2.716 6.701 6.105a16.99 16.99 0 0 1 1.548 5.308c.5 2.893 1.068 6.173 4.328 9.787a22.87 22.87 0 0 0 2.65 2.472 8.693 8.693 0 0 1 .848.744 7.418 7.418 0 0 1-1.788 4.829 4.361 4.361 0 0 1-2.939 1.84 638.915 638.915 0 0 1-37.076-.56 6.504 6.504 0 0 0-6.345 8.868A40.4 40.4 0 0 0 58.082 267a12.99 12.99 0 0 1-2.105 1.562 14.733 14.733 0 0 1-11.47 1.296 6.491 6.491 0 0 0-7.553 9c5.97 12.806 18.766 20.83 31.108 19.495a27.657 27.657 0 0 0 15.58-7.314c.025 1.224.082 2.497.143 3.86a101.18 101.18 0 0 1-.203 15.293 86.691 86.691 0 0 0 1.311 22.377c1.867 9.641 5.261 14.873 8.256 19.49 2.803 4.32 5.223 8.05 6.527 15.129a24.375 24.375 0 0 1-.32 11.869 24.464 24.464 0 0 0-.025 13.507c2.112 8.397 5.959 12.296 10.032 16.425 3.697 3.747 7.52 7.622 11.08 15.925a47.057 47.057 0 0 1 3.34 11.47 34.054 34.054 0 0 0 5.406 14.23 60.484 60.484 0 0 0 5.479 7.196 100.736 100.736 0 0 1 7.69 10.058 87.699 87.699 0 0 1 4.87 8.143c1.02 1.878 2.075 3.82 3.608 6.243 14.335 22.661 19.823 29.783 26.404 29.783a10.293 10.293 0 0 0 1.454-.11c14.305-2.085 21.35-35.563 21.419-35.9.279-1.357.506-2.669.728-3.952.837-4.834 1.498-8.652 4.566-13.04a27.842 27.842 0 0 1 4.21-4.685c2.029-1.904 4.127-3.872 4.914-7.692.897-4.348-.638-7.442-1.992-10.172a18.05 18.05 0 0 1-2.304-7.225c-.218-2.908.447-4.463 1.654-7.285a60.26 60.26 0 0 0 2.365-6.26c3.028-9.79 1.959-16.802 1.178-21.922-.687-4.504-.919-6.58.778-8.603 1.686-2.008 3.844-2.195 7.83-2.374 4.721-.211 10.597-.476 16.608-5.62a21.86 21.86 0 0 0 6.377-9.12 20.429 20.429 0 0 1 5.478-8.06 22.525 22.525 0 0 1 8.34-5.015A32.302 32.302 0 0 0 272.1 348.2a25.68 25.68 0 0 0 6.31-8.182 21.607 21.607 0 0 1 5.073-6.711 38.808 38.808 0 0 1 9.032-6.359 33.706 33.706 0 0 0 10.743-8.354 23.749 23.749 0 0 0 4.081-6.575 54.676 54.676 0 0 1 3.052-5.882c9.113-15.39 17.454-23.2 24.792-23.207h.01c3.353 0 5.621 1.742 7.815 3.427 2.225 1.708 5.27 4.047 8.713 1.948 5.315-3.244 3.924-11.224.565-30.501-1.325-7.605-2.974-17.07-4.624-28.515-.644-4.463-2.087-14.48-1.13-17.374.633.428 1.534 1.171 2.245 1.759a38.68 38.68 0 0 0 14.114 8.046 43.646 43.646 0 0 0 12.945 1.59c4.717.051 8.79.095 14.079 2.984a11.18 11.18 0 0 1 3.63 2.676c-.252.665-1.965 2.148-3.117 3.145-2.939 2.544-6.965 6.028-9.232 11.813-2.199 5.607-3.081 15.064 2.004 17.555 4.336 2.123 8.697-2.025 13.318-6.414.103-.1.21-.202.321-.306-1.105 4.352-1.976 9.976.507 15.514a21.117 21.117 0 0 0 11.33 10.652 9.343 9.343 0 0 0 7.375-.03c2.885-1.43 4.637-4.729 5.047-17.37a84.603 84.603 0 0 0-.737-15.905c-.35-2.574-.469-3.44.13-5.192 1.298-3.797 3.866-5.2 7.754-7.323 4.162-2.275 9.343-5.105 13.63-11.88a22.381 22.381 0 0 0 3.684-12.804 14.206 14.206 0 0 1 .538-4.285 10.155 10.155 0 0 1 1.649-2.889l.184-.253c1.046-1.438 10.673-14.079 26.544-14.922a37.112 37.112 0 0 1 6.364.268c3.07.328 6.244.67 8.881-2.116 3.583-3.79 3.378-10.356-.61-19.515Zm-4.477 14.706c-.235.246-1.306.15-3.047-.035a44.231 44.231 0 0 0-7.483-.298c-19.108 1.015-30.59 16.082-31.836 17.797l-.173.237a16.684 16.684 0 0 0-2.626 4.77 20.629 20.629 0 0 0-.906 6.328 15.534 15.534 0 0 1-2.602 9.268c-3.318 5.244-7.26 7.397-11.071 9.479-4.348 2.375-8.843 4.831-11.022 11.202-1.135 3.32-.844 5.452-.441 8.403a77.36 77.36 0 0 1 .676 14.733c-.262 8.056-1.072 10.648-1.4 11.382-1.607.181-6.786-2.403-8.969-7.272-1.981-4.42-.51-9.604.564-13.39.967-3.406 2.062-7.266-1.177-9.237-3.622-2.208-7.237 1.23-11.424 5.207a50.584 50.584 0 0 1-5.192 4.508 17.881 17.881 0 0 1 1.21-8.019c1.637-4.176 4.643-6.779 7.295-9.075 3.02-2.613 6.144-5.316 5.476-9.61-.425-2.727-2.785-5.228-7.215-7.648-6.822-3.724-12.178-3.782-17.358-3.837a36.856 36.856 0 0 1-11.007-1.295 31.633 31.633 0 0 1-11.672-6.743c-2.8-2.31-5.973-4.928-9.753-3.025-5.64 2.84-4.717 11.365-2.747 25.038 1.665 11.548 3.324 21.068 4.657 28.718 1.717 9.856 3.35 19.228 2.831 22.517a53.066 53.066 0 0 1-.949-.717c-2.529-1.942-6.348-4.875-12.079-4.875h-.018c-15.043.016-26.908 20.055-30.807 26.64a61.638 61.638 0 0 0-3.398 6.543 17.14 17.14 0 0 1-3.046 4.948c-3.059 3.598-5.588 4.992-8.79 6.757a45.283 45.283 0 0 0-10.478 7.42 28.43 28.43 0 0 0-6.447 8.533 18.726 18.726 0 0 1-4.813 6.246 25.62 25.62 0 0 1-9.118 5.472 29.407 29.407 0 0 0-10.553 6.412 27.312 27.312 0 0 0-7.133 10.417 14.915 14.915 0 0 1-4.496 6.561c-4.18 3.577-8.158 3.756-12.37 3.945-4.283.193-9.137.41-12.877 4.867-3.805 4.533-3.092 9.208-2.337 14.159.754 4.942 1.608 10.544-.945 18.798a53.681 53.681 0 0 1-2.114 5.576c-1.365 3.19-2.544 5.947-2.199 10.56a24.761 24.761 0 0 0 3.014 9.814c1.227 2.473 1.8 3.746 1.408 5.646-.323 1.567-.985 2.252-2.85 4.001a34.636 34.636 0 0 0-5.156 5.779c-3.962 5.668-4.859 10.847-5.726 15.857-.21 1.213-.424 2.453-.688 3.735-2.813 13.682-10.07 29.582-15.571 30.385-3.217.425-9.837-8.948-20.933-26.49-1.409-2.227-2.363-3.983-3.373-5.842a94.825 94.825 0 0 0-5.219-8.716 106.614 106.614 0 0 0-8.16-10.679 53.31 53.31 0 0 1-4.909-6.423 27.163 27.163 0 0 1-4.423-11.728 53.734 53.734 0 0 0-3.792-12.967 53.096 53.096 0 0 0-12.53-18.083c-3.82-3.873-6.58-6.67-8.227-13.217a17.867 17.867 0 0 1 .048-10.18 31.01 31.01 0 0 0 .393-14.756c-1.557-8.45-4.598-13.138-7.539-17.67-2.904-4.478-5.647-8.707-7.255-17.01a81.008 81.008 0 0 1-1.215-20.382 108.679 108.679 0 0 0 .226-16.272 65.872 65.872 0 0 1-.086-6.91 5.423 5.423 0 0 0-3.353-5.418 5.551 5.551 0 0 0-2.153-.44 5.449 5.449 0 0 0-4.078 1.853c-2.814 3.15-7.492 7.045-13.793 7.723-9.108.972-18.643-4.949-23.534-14.507a20.78 20.78 0 0 0 24.495-12.66 3.5 3.5 0 0 0-3.883-4.764 34.23 34.23 0 0 1-24.075-4.538 33.868 33.868 0 0 1-13.31-15.937 643.783 643.783 0 0 0 36.717.533 10.932 10.932 0 0 0 8.304-4.463c2.561-3.198 3.838-7.472 3.178-10.637a7.936 7.936 0 0 0-3.258-4.723 16.139 16.139 0 0 1-1.896-1.752c-1.905-2.11-2.192-3.773-2.627-6.29a23.556 23.556 0 0 0-2.212-7.3c-2.715-5.311-6.681-7.479-9.577-9.062-2.621-1.433-3.8-2.144-4.292-4.002-.923-3.486 1.382-8.575 4.932-10.89 1.87-1.218 3.196-1.086 6.017-.664a22.185 22.185 0 0 0 10.595-.441c6.042-1.83 8.688-5.53 11.247-9.109 2.35-3.287 4.782-6.686 10.445-9.843a33.136 33.136 0 0 1 8.073-3.232c2.975-.835 5.785-1.624 8.438-5.23 2.403-3.264 2.887-6.33 3.356-9.293a22.03 22.03 0 0 1 2.983-9.01 18.296 18.296 0 0 1 3.823-4.535 35.288 35.288 0 0 0 2.865-2.9c7.45-8.616 10.49-23.042 7.228-34.302-2.89-9.976-10.65-16.406-16.885-21.574-5.543-4.594-8.861-7.579-8.208-10.28l.108-.46a10.65 10.65 0 0 1 1.382-3.73 29.766 29.766 0 0 1 2.215-2.312c2.583-2.517 5.796-5.651 5.72-10.81-.13-9.004-10.136-14.029-18.176-18.065-2.952-1.482-9.867-4.955-9.808-6.4.016-.405 1.211-2.636 6.422-5.366 10.218-5.353 30.233-9.331 42.738-1.409 4.287 2.717 6.782 6.318 9.194 9.8 3.331 4.809 6.776 9.782 14.251 11.165 5.474 1.018 9.04-.651 12.816-2.414a35.254 35.254 0 0 1 11.935-3.647c13.185-1.529 26.89 3.403 27.682 7.243.357 1.727-3.818 4.897-7.173 7.443-6.351 4.82-14.255 10.82-14.423 20.429-.09 5.197 2.17 8.84 3.987 11.767 1.878 3.025 2.534 4.336 1.97 6.12-1.015 3.217-5.356 4.777-9.554 6.285-4.579 1.644-9.313 3.346-9.947 7.994-.96 7.032 8.167 11.443 19.72 17.027 9.796 4.735 23.21 11.22 23.297 17.739.033 2.465-1.195 4.235-3.202 6.92-2.257 3.017-5.064 6.773-4.683 12.445 1.12 16.652 27.275 25.314 30.253 26.247a52.703 52.703 0 0 0 14.811 2.382c4.467.207 7.995.37 13.376 3.148a22.818 22.818 0 0 1 7.623 6.066 41.443 41.443 0 0 0 8.387 7.468 67.097 67.097 0 0 0 22.15 9.592c9.635 2.12 17.712 1.117 23.357-2.904 6.737-4.799 8.668-12.903 10.077-18.82a40.404 40.404 0 0 1 1.404-5.01c.537.693 1.23 1.832 1.777 2.733a34.3 34.3 0 0 0 8.37 10.082c14.377 11.059 36.582 3.667 39.067 2.79 13.132-4.647 19.187-13.891 24.529-22.048 4.788-7.31 8.57-13.084 16.361-13.995a15.747 15.747 0 0 1 7.012.844 55.605 55.605 0 0 0 17.108 2.19c2.023-.01 3.858-.083 5.476-.147 5.222-.208 8.376-.334 11.683 1.712 4.166 2.577 6.032 6.863 7.146 9.424 3.293 7.563 2.71 11.098 1.942 11.912Z"></path></svg>